<svg width="77" height="22" viewBox="0 0 77 22" fill="none" xmlns="http://www.w3.org/2000/svg">
<path d="M4 10.9091C4 10.3655 4.13258 9.87003 4.39773 9.42259C4.66288 8.97514 5.01918 8.61884 5.46662 8.35369C5.91406 8.08854 6.40956 7.95597 6.95312 7.95597C7.42377 7.95597 7.85795 8.05705 8.25568 8.25923C8.65672 8.46141 8.98816 8.73816 9.25 9.08949C9.51184 9.4375 9.67424 9.83191 9.73722 10.2727H8.53409C8.4678 9.93134 8.28385 9.65294 7.98224 9.4375C7.68063 9.21875 7.33759 9.10938 6.95312 9.10938C6.62169 9.10938 6.32008 9.19058 6.0483 9.35298C5.77652 9.51539 5.55942 9.73248 5.39702 10.0043C5.23461 10.276 5.15341 10.5777 5.15341 10.9091C5.15341 11.2405 5.23461 11.5421 5.39702 11.8139C5.55942 12.0857 5.77652 12.3028 6.0483 12.4652C6.32008 12.6276 6.62169 12.7088 6.95312 12.7088C7.33759 12.7088 7.66241 12.6011 7.92756 12.3857C8.19602 12.1669 8.36506 11.8868 8.43466 11.5455H9.63778C9.57481 11.9863 9.42069 12.3823 9.17543 12.7337C8.93016 13.0817 8.61529 13.3568 8.23082 13.5589C7.84967 13.7611 7.42377 13.8622 6.95312 13.8622C6.40956 13.8622 5.91406 13.7296 5.46662 13.4645C5.01918 13.1993 4.66288 12.843 4.39773 12.3956C4.13258 11.9482 4 11.4527 4 10.9091ZM6.90341 16.1591C6.18087 16.1591 5.50142 16.0232 4.86506 15.7514C4.23201 15.4796 3.67353 15.1035 3.18963 14.6229C2.70904 14.139 2.3312 13.5805 2.05611 12.9474C1.78433 12.3144 1.65009 11.6349 1.65341 10.9091C1.65672 10.1832 1.79427 9.50379 2.06605 8.87074C2.34115 8.23769 2.71899 7.68087 3.19957 7.20028C3.68016 6.71638 4.23698 6.33854 4.87003 6.06676C5.50308 5.79498 6.18087 5.65909 6.90341 5.65909C7.62926 5.65909 8.30871 5.79498 8.94176 6.06676C9.57813 6.33854 10.1349 6.71638 10.6122 7.20028C11.0928 7.68087 11.469 8.23769 11.7408 8.87074C12.0125 9.50379 12.1501 10.1832 12.1534 10.9091C12.1567 11.6349 12.0225 12.3144 11.7507 12.9474C11.4789 13.5805 11.1027 14.139 10.6222 14.6229C10.1416 15.1035 9.5831 15.4796 8.94673 15.7514C8.31037 16.0232 7.62926 16.1591 6.90341 16.1591ZM6.90341 15.0057C7.47017 15.0057 8.00213 14.8996 8.49929 14.6875C8.99645 14.4754 9.43229 14.1821 9.80682 13.8075C10.1813 13.433 10.4747 12.9988 10.6868 12.505C10.8989 12.0078 11.0033 11.4775 11 10.9141C10.9967 10.3473 10.889 9.81534 10.6768 9.31818C10.4647 8.82102 10.1714 8.38518 9.79688 8.01065C9.42235 7.63613 8.98816 7.3428 8.49432 7.13068C8.00047 6.91856 7.47017 6.8125 6.90341 6.8125C6.33996 6.8125 5.81132 6.91856 5.31747 7.13068C4.82363 7.3428 4.38944 7.63778 4.01491 8.01562C3.64039 8.39015 3.34541 8.82599 3.12997 9.32315C2.91785 9.817 2.81013 10.3473 2.80682 10.9141C2.8035 11.4742 2.90791 12.0028 3.12003 12.5C3.33215 12.9938 3.62547 13.428 4 13.8026C4.37784 14.1771 4.81368 14.4721 5.30753 14.6875C5.80469 14.8996 6.33665 15.0057 6.90341 15.0057ZM19.0776 5.81818L21.7026 10.054H21.7821L24.4071 5.81818H25.8588L22.6571 10.9091L25.8588 16H24.4071L21.7821 11.8438H21.7026L19.0776 16H17.6259L20.9071 10.9091L17.6259 5.81818H19.0776ZM34.543 16H31.4009V5.81818H34.6822C35.6699 5.81818 36.515 6.02202 37.2177 6.42969C37.9203 6.83404 38.4589 7.41572 38.8335 8.17472C39.208 8.9304 39.3952 9.83523 39.3952 10.8892C39.3952 11.9498 39.2063 12.8629 38.8285 13.6286C38.4506 14.3909 37.9004 14.9775 37.1779 15.3885C36.4554 15.7962 35.5771 16 34.543 16ZM32.6339 14.9062H34.4634C35.3053 14.9062 36.003 14.7438 36.5565 14.419C37.11 14.0942 37.5226 13.6319 37.7944 13.032C38.0662 12.4321 38.2021 11.7178 38.2021 10.8892C38.2021 10.0672 38.0678 9.35961 37.7994 8.76633C37.5309 8.16974 37.1299 7.71236 36.5962 7.39418C36.0626 7.07268 35.3981 6.91193 34.6026 6.91193H32.6339V14.9062ZM44.506 16.1591C43.7702 16.1591 43.1355 15.9967 42.6019 15.6719C42.0716 15.3438 41.6623 14.8864 41.3739 14.2997C41.0889 13.7098 40.9464 13.0237 40.9464 12.2415C40.9464 11.4593 41.0889 10.7699 41.3739 10.1733C41.6623 9.57339 42.0633 9.10606 42.5771 8.77131C43.0941 8.43324 43.6973 8.2642 44.3867 8.2642C44.7844 8.2642 45.1772 8.33049 45.565 8.46307C45.9528 8.59564 46.3058 8.81108 46.6239 9.10938C46.9421 9.40436 47.1957 9.79545 47.3846 10.2827C47.5735 10.7699 47.668 11.3698 47.668 12.0824V12.5795H41.7816V11.5653H46.4748C46.4748 11.1345 46.3886 10.75 46.2163 10.4119C46.0472 10.0739 45.8053 9.80705 45.4904 9.61151C45.1789 9.41596 44.811 9.31818 44.3867 9.31818C43.9194 9.31818 43.515 9.43419 43.1737 9.66619C42.8356 9.89489 42.5754 10.1932 42.3931 10.5611C42.2108 10.929 42.1197 11.3234 42.1197 11.7443V12.4205C42.1197 12.9972 42.2191 13.486 42.418 13.8871C42.6201 14.2848 42.9002 14.5881 43.2582 14.7969C43.6161 15.0024 44.0321 15.1051 44.506 15.1051C44.8143 15.1051 45.0927 15.062 45.3413 14.9759C45.5932 14.8864 45.8103 14.7538 45.9925 14.5781C46.1748 14.3991 46.3157 14.1771 46.4151 13.9119L47.5487 14.2301C47.4293 14.6146 47.2288 14.9527 46.9471 15.2443C46.6654 15.5327 46.3174 15.758 45.9031 15.9205C45.4888 16.0795 45.0231 16.1591 44.506 16.1591ZM54.8619 10.0739L53.8079 10.3722C53.7416 10.1965 53.6438 10.0258 53.5146 9.86009C53.3886 9.69105 53.2163 9.55185 52.9975 9.44247C52.7788 9.3331 52.4987 9.27841 52.1573 9.27841C51.69 9.27841 51.3005 9.38613 50.989 9.60156C50.6808 9.81368 50.5266 10.0838 50.5266 10.4119C50.5266 10.7036 50.6327 10.9339 50.8448 11.103C51.0569 11.272 51.3884 11.4129 51.8391 11.5256L52.9727 11.804C53.6554 11.9697 54.1642 12.2232 54.4989 12.5646C54.8337 12.9027 55.0011 13.3385 55.0011 13.8722C55.0011 14.3097 54.8751 14.7008 54.6232 15.0455C54.3746 15.3902 54.0266 15.6619 53.5792 15.8608C53.1317 16.0597 52.6114 16.1591 52.0181 16.1591C51.2392 16.1591 50.5946 15.9901 50.0842 15.652C49.5737 15.3139 49.2506 14.8201 49.1147 14.1705L50.2283 13.892C50.3344 14.303 50.5349 14.6113 50.8299 14.8168C51.1282 15.0223 51.5176 15.125 51.9982 15.125C52.5451 15.125 52.9793 15.009 53.3008 14.777C53.6256 14.5417 53.788 14.2599 53.788 13.9318C53.788 13.6667 53.6952 13.4446 53.5096 13.2656C53.324 13.0833 53.0389 12.9474 52.6545 12.858L51.3817 12.5597C50.6824 12.3939 50.1687 12.1371 49.8406 11.7891C49.5157 11.4377 49.3533 10.9986 49.3533 10.4716C49.3533 10.0407 49.4743 9.65956 49.7163 9.32812C49.9615 8.99669 50.2946 8.73651 50.7156 8.54758C51.1398 8.35866 51.6204 8.2642 52.1573 8.2642C52.913 8.2642 53.5063 8.42992 53.9371 8.76136C54.3713 9.0928 54.6796 9.5303 54.8619 10.0739ZM56.7672 16V8.36364H57.9405V16H56.7672ZM57.3638 7.09091C57.1351 7.09091 56.9379 7.01302 56.7722 6.85724C56.6098 6.70147 56.5286 6.5142 56.5286 6.29545C56.5286 6.0767 56.6098 5.88944 56.7722 5.73366C56.9379 5.57789 57.1351 5.5 57.3638 5.5C57.5925 5.5 57.7881 5.57789 57.9505 5.73366C58.1162 5.88944 58.199 6.0767 58.199 6.29545C58.199 6.5142 58.1162 6.70147 57.9505 6.85724C57.7881 7.01302 57.5925 7.09091 57.3638 7.09091ZM63.1719 19.0227C62.6051 19.0227 62.1179 18.9498 61.7102 18.804C61.3026 18.6615 60.9628 18.4725 60.6911 18.2372C60.4226 18.0052 60.2088 17.7566 60.0497 17.4915L60.9844 16.8352C61.0904 16.9744 61.2247 17.1335 61.3871 17.3125C61.5495 17.4948 61.7715 17.6522 62.0533 17.7848C62.3383 17.9207 62.7112 17.9886 63.1719 17.9886C63.7884 17.9886 64.2971 17.8395 64.6982 17.5412C65.0992 17.2429 65.2997 16.7756 65.2997 16.1392V14.5881H65.2003C65.1141 14.7273 64.9915 14.8996 64.8324 15.1051C64.6766 15.3073 64.4512 15.4879 64.1562 15.647C63.8646 15.8028 63.4702 15.8807 62.973 15.8807C62.3565 15.8807 61.803 15.7348 61.3125 15.4432C60.8253 15.1515 60.4392 14.7273 60.1541 14.1705C59.8724 13.6136 59.7315 12.9375 59.7315 12.142C59.7315 11.3598 59.8691 10.6787 60.1442 10.0987C60.4193 9.51539 60.8021 9.06463 61.2926 8.74645C61.7831 8.42495 62.3499 8.2642 62.9929 8.2642C63.4901 8.2642 63.8845 8.34706 64.1761 8.51278C64.4711 8.67519 64.6965 8.8608 64.8523 9.0696C65.0114 9.27509 65.134 9.44413 65.2202 9.5767H65.3395V8.36364H66.473V16.2188C66.473 16.875 66.3239 17.4086 66.0256 17.8196C65.7306 18.2339 65.3329 18.5372 64.8324 18.7294C64.3352 18.925 63.7817 19.0227 63.1719 19.0227ZM63.1321 14.8267C63.6027 14.8267 64.0005 14.719 64.3253 14.5036C64.6501 14.2881 64.897 13.9782 65.0661 13.5739C65.2351 13.1695 65.3196 12.6856 65.3196 12.1222C65.3196 11.572 65.2367 11.0864 65.071 10.6655C64.9053 10.2446 64.66 9.91477 64.3352 9.67614C64.0104 9.4375 63.6094 9.31818 63.1321 9.31818C62.6349 9.31818 62.2206 9.44413 61.8892 9.69602C61.5611 9.94792 61.3142 10.286 61.1484 10.7102C60.986 11.1345 60.9048 11.6051 60.9048 12.1222C60.9048 12.6525 60.9877 13.1214 61.1534 13.5291C61.3224 13.9335 61.571 14.2517 61.8991 14.4837C62.2306 14.7124 62.6416 14.8267 63.1321 14.8267ZM69.794 11.4062V16H68.6207V8.36364H69.7543V9.55682H69.8537C70.0327 9.16903 70.3045 8.85748 70.669 8.62216C71.0336 8.38352 71.5043 8.2642 72.081 8.2642C72.598 8.2642 73.0504 8.37027 73.4382 8.58239C73.826 8.79119 74.1276 9.10938 74.343 9.53693C74.5585 9.96117 74.6662 10.4981 74.6662 11.1477V16H73.4929V11.2273C73.4929 10.6274 73.3371 10.16 73.0256 9.82528C72.714 9.48722 72.2865 9.31818 71.7429 9.31818C71.3684 9.31818 71.0336 9.39938 70.7386 9.56179C70.447 9.72419 70.2166 9.96117 70.0476 10.2727C69.8786 10.5843 69.794 10.9621 69.794 11.4062Z" fill="#BDBDBD"/>
</svg>
