<svg width="19" height="18" viewBox="0 0 19 18" fill="none" xmlns="http://www.w3.org/2000/svg">
<path d="M13.041 2.75391C13.8025 2.75391 14.5328 3.05634 15.0713 3.59473C15.6097 4.13313 15.912 4.86359 15.9121 5.625C15.9121 6.38645 15.6097 7.11681 15.0713 7.65527L7.19629 15.5303C7.05564 15.6709 6.86493 15.75 6.66602 15.75H3.66602C3.2518 15.75 2.91602 15.4142 2.91602 15V12C2.9161 11.8012 2.99516 11.6103 3.13574 11.4697L11.0107 3.59473C11.5492 3.05634 12.2796 2.75391 13.041 2.75391ZM4.41602 12.3105V14.25H6.35547L12.7305 7.875L10.791 5.93555L4.41602 12.3105ZM13.041 4.25391C12.6774 4.25391 12.3284 4.3982 12.0713 4.65527L11.8516 4.875L13.791 6.81445L14.0107 6.59473C14.2678 6.33757 14.4121 5.98863 14.4121 5.625C14.412 5.26141 14.2678 4.91237 14.0107 4.65527C13.7536 4.3982 13.4046 4.25391 13.041 4.25391Z" fill="#D0D5DD"/>
</svg>
