<svg width="18" height="18" viewBox="0 0 18 18" fill="none" xmlns="http://www.w3.org/2000/svg">
<path d="M14.75 0C16.2688 0 17.5 1.23122 17.5 2.75V14.75C17.5 16.2688 16.2688 17.5 14.75 17.5H2.75C1.23122 17.5 0 16.2688 0 14.75V2.75C0 1.23122 1.23122 0 2.75 0H14.75ZM2.75 1.5C2.05964 1.5 1.5 2.05964 1.5 2.75V14.75C1.5 15.4404 2.05964 16 2.75 16H14.75C15.4404 16 16 15.4404 16 14.75V2.75C16 2.05964 15.4404 1.5 14.75 1.5H2.75ZM4.75 7C5.16421 7 5.5 7.33579 5.5 7.75V12.75C5.5 13.1642 5.16421 13.5 4.75 13.5C4.33579 13.5 4 13.1642 4 12.75V7.75C4 7.33579 4.33579 7 4.75 7ZM10.75 7C11.4793 7 12.1786 7.28994 12.6943 7.80566C13.2101 8.32139 13.5 9.02065 13.5 9.75V12.75C13.5 13.1642 13.1642 13.5 12.75 13.5C12.3358 13.5 12 13.1642 12 12.75V9.75C12 9.41848 11.8682 9.10063 11.6338 8.86621C11.3994 8.63179 11.0815 8.5 10.75 8.5C10.4185 8.5 10.1006 8.63179 9.86621 8.86621C9.63179 9.10063 9.5 9.41848 9.5 9.75V12.75C9.5 13.1642 9.16421 13.5 8.75 13.5C8.33579 13.5 8 13.1642 8 12.75V7.75C8 7.33579 8.33579 7 8.75 7C9.02217 7 9.25821 7.14634 9.38965 7.36328C9.80093 7.12877 10.2683 7 10.75 7ZM4.75 4C5.16421 4 5.5 4.33579 5.5 4.75V4.75977C5.5 5.17398 5.16421 5.50977 4.75 5.50977C4.33579 5.50977 4 5.17398 4 4.75977V4.75C4 4.33579 4.33579 4 4.75 4Z" fill="#DDDDDD"/>
</svg>
