<svg width="16" height="13" viewBox="0 0 16 13" fill="none" xmlns="http://www.w3.org/2000/svg">
<path d="M13.4531 0.922852C14.6958 0.922852 15.7031 1.93021 15.7031 3.17285V10.6729C15.7029 11.9153 14.6956 12.9229 13.4531 12.9229H2.95312C1.71076 12.9227 0.703331 11.9152 0.703125 10.6729V3.17285C0.703125 1.93032 1.71063 0.923027 2.95312 0.922852H13.4531ZM8.61914 8.29688C8.36727 8.46456 8.0389 8.46474 7.78711 8.29688L2.20312 4.57422V10.6729C2.20333 11.0868 2.53919 11.4227 2.95312 11.4229H13.4531C13.8672 11.4229 14.2029 11.0869 14.2031 10.6729V4.57422L8.61914 8.29688ZM2.95312 2.42285C2.66337 2.42297 2.41484 2.58848 2.29004 2.8291L8.20312 6.77148L14.1162 2.8291C13.9913 2.58853 13.7429 2.42285 13.4531 2.42285H2.95312Z" fill="#EAECF0"/>
</svg>
