<svg width="14" height="14" viewBox="0 0 14 14" fill="none" xmlns="http://www.w3.org/2000/svg">
<path d="M10.2441 0.210938C12.3151 0.21097 13.994 1.89003 13.9941 3.96094V9.96094C13.9941 12.032 12.3152 13.7109 10.2441 13.7109H4.24414C2.17307 13.7109 0.494141 12.032 0.494141 9.96094V3.96094C0.494306 1.89001 2.17317 0.210938 4.24414 0.210938H10.2441ZM4.24414 1.71094C3.0016 1.71094 1.99431 2.71844 1.99414 3.96094V9.96094C1.99414 11.2036 3.0015 12.2109 4.24414 12.2109H10.2441C11.4868 12.2109 12.4941 11.2036 12.4941 9.96094V3.96094C12.494 2.71846 11.4867 1.71097 10.2441 1.71094H4.24414ZM7.24414 3.96094C8.90087 3.96097 10.244 5.30424 10.2441 6.96094C10.2441 8.61777 8.90097 9.96091 7.24414 9.96094C5.58729 9.96094 4.24414 8.61779 4.24414 6.96094C4.24431 5.30422 5.58739 3.96094 7.24414 3.96094ZM7.24414 5.46094C6.41582 5.46094 5.74431 6.13265 5.74414 6.96094C5.74414 7.78936 6.41571 8.46094 7.24414 8.46094C8.07254 8.46091 8.74414 7.78934 8.74414 6.96094C8.74398 6.13267 8.07244 5.46097 7.24414 5.46094ZM10.6191 2.83594C11.0332 2.83597 11.369 3.17286 11.3691 3.58691C11.369 4.001 11.0333 4.33688 10.6191 4.33691C10.205 4.33691 9.86926 4.00102 9.86914 3.58691C9.86931 3.17284 10.205 2.83594 10.6191 2.83594Z" fill="#EAECF0"/>
</svg>
