<svg width="21" height="16" viewBox="0 0 21 16" fill="none" xmlns="http://www.w3.org/2000/svg">
<path d="M15.377 0.146484C18.0003 0.146484 20.127 2.27313 20.127 4.89648V10.8965C20.127 13.5198 18.0003 15.6465 15.377 15.6465H5.37695C2.7536 15.6465 0.626953 13.5198 0.626953 10.8965V4.89648C0.626953 2.27313 2.7536 0.146484 5.37695 0.146484H15.377ZM5.37695 1.64648C3.58203 1.64648 2.12695 3.10156 2.12695 4.89648V10.8965C2.12695 12.6914 3.58203 14.1465 5.37695 14.1465H15.377C17.1719 14.1465 18.627 12.6914 18.627 10.8965V4.89648C18.627 3.10156 17.1719 1.64648 15.377 1.64648H5.37695ZM8.00781 4.24414C8.24282 4.11116 8.5311 4.11411 8.7627 4.25293L13.7627 7.25293C13.9886 7.38847 14.127 7.63304 14.127 7.89648C14.127 8.15993 13.9886 8.4045 13.7627 8.54004L8.7627 11.54C8.5311 11.6789 8.24282 11.6818 8.00781 11.5488C7.77268 11.4157 7.62695 11.1667 7.62695 10.8965V4.89648C7.62695 4.62628 7.77268 4.37727 8.00781 4.24414ZM9.12695 9.57129L11.918 7.89648L9.12695 6.2207V9.57129Z" fill="#DDDDDD"/>
</svg>
