<svg width="18" height="18" viewBox="0 0 18 18" fill="none" xmlns="http://www.w3.org/2000/svg">
<path d="M11.6484 1.5C12.0625 1.50013 12.3984 1.83587 12.3984 2.25V3H13.1484C14.391 3.00013 15.3984 4.00744 15.3984 5.25V14.25C15.3984 15.4926 14.391 16.4999 13.1484 16.5H4.14844C2.9058 16.5 1.89844 15.4926 1.89844 14.25V5.25C1.89844 4.00736 2.9058 3 4.14844 3H4.89844V2.25C4.89844 1.83579 5.23422 1.5 5.64844 1.5C6.06254 1.50013 6.39844 1.83587 6.39844 2.25V3H10.8984V2.25C10.8984 1.83579 11.2342 1.5 11.6484 1.5ZM3.39844 9V14.25C3.39844 14.6642 3.73422 15 4.14844 15H13.1484C13.5625 14.9999 13.8984 14.6641 13.8984 14.25V9H3.39844ZM4.14844 4.5C3.73422 4.5 3.39844 4.83579 3.39844 5.25V7.5H13.8984V5.25C13.8984 4.83587 13.5625 4.50013 13.1484 4.5H12.3984V5.25C12.3984 5.66413 12.0625 5.99987 11.6484 6C11.2342 6 10.8984 5.66421 10.8984 5.25V4.5H6.39844V5.25C6.39844 5.66413 6.06254 5.99987 5.64844 6C5.23422 6 4.89844 5.66421 4.89844 5.25V4.5H4.14844Z" fill="#BDBDBD"/>
</svg>
